# Blender v3.3.1 OBJ File: ''
# www.blender.org
mtllib cajita.mtl
o Cube
v 1.000000 1.000000 -1.000000
v 1.000000 -1.000000 -1.000000
v 1.000000 1.000000 1.000000
v 1.000000 -1.000000 1.000000
v -1.000000 1.000000 -1.000000
v -1.000000 -1.000000 -1.000000
v -1.000000 1.000000 1.000000
v -1.000000 -1.000000 1.000000
v 0.820070 1.000000 0.820070
v -0.820070 1.000000 0.820070
v 0.820070 1.000000 -0.820070
v -0.820070 1.000000 -0.820070
v 0.820070 0.818957 0.820070
v -0.820070 0.818957 0.820070
v 0.820070 0.818957 -0.820070
v -0.820070 0.818957 -0.820070
v -0.825855 -1.000000 -0.825855
v -0.825855 -1.000000 0.825855
v 0.825855 -1.000000 -0.825855
v 0.825855 -1.000000 0.825855
v -0.825855 -0.845564 -0.825855
v -0.825855 -0.845564 0.825855
v 0.825855 -0.845564 -0.825855
v 0.825855 -0.845564 0.825855
v 1.000000 0.946856 -1.000000
v -1.000000 0.946856 1.000000
v 1.000000 0.946856 1.000000
v -1.000000 0.946856 -1.000000
v 1.000000 -0.911997 -1.000000
v 1.000000 -0.911997 1.000000
v -1.000000 -0.911997 -1.000000
v -1.000000 -0.911997 1.000000
v -0.890025 -1.000000 -1.000000
v -0.890025 1.000000 1.000000
v -0.890025 -1.000000 1.000000
v -0.890025 1.000000 -1.000000
v -0.729883 1.000000 0.820070
v -0.729883 1.000000 -0.820070
v -0.729883 0.818957 0.820070
v -0.729883 0.818957 -0.820070
v -0.735032 -1.000000 -0.825855
v -0.735032 -1.000000 0.825855
v -0.735032 -0.845564 -0.825855
v -0.735032 -0.845564 0.825855
v -0.890025 0.946856 -1.000000
v -0.890025 0.946856 1.000000
v -0.890025 -0.911997 1.000000
v -0.890025 -0.911997 -1.000000
v 0.881059 -1.000000 1.000000
v 0.881059 1.000000 -1.000000
v 0.722530 1.000000 -0.820070
v 0.722530 0.818957 -0.820070
v 0.727627 -1.000000 0.825855
v 0.727627 -0.845564 0.825855
v 0.881059 0.946856 -1.000000
v 0.881059 -0.911997 -1.000000
v 0.881059 -1.000000 -1.000000
v 0.881059 1.000000 1.000000
v 0.722530 1.000000 0.820070
v 0.722530 0.818957 0.820070
v 0.727627 -1.000000 -0.825855
v 0.727627 -0.845564 -0.825855
v 0.881059 0.946856 1.000000
v 0.881059 -0.911997 1.000000
v -1.000000 -1.000000 0.798266
v 1.000000 1.000000 0.798266
v -1.000000 1.000000 0.798266
v 1.000000 -1.000000 0.798266
v 0.820070 1.000000 0.654633
v -0.820070 1.000000 0.654633
v 0.820070 0.818957 0.654633
v -0.820070 0.818957 0.654633
v -0.825855 -1.000000 0.659252
v 0.825855 -1.000000 0.659252
v -0.825855 -0.845564 0.659252
v 0.825855 -0.845564 0.659252
v 1.000000 0.946856 0.798266
v -1.000000 0.946856 0.798266
v -1.000000 -0.911997 0.798266
v 1.000000 -0.911997 0.798266
v -0.735032 -0.845564 0.659252
v -0.729883 0.818957 0.654633
v 0.722530 0.818957 0.654633
v 0.727627 -0.845564 0.659252
v -1.000000 1.000000 -0.797446
v 1.000000 -1.000000 -0.797446
v -0.820070 1.000000 -0.653961
v -0.820070 0.818957 -0.653961
v 0.825855 -1.000000 -0.658575
v 0.825855 -0.845564 -0.658575
v -1.000000 0.946856 -0.797446
v -1.000000 -0.911997 -0.797446
v -1.000000 -1.000000 -0.797446
v 1.000000 1.000000 -0.797446
v 0.820070 1.000000 -0.653961
v 0.820070 0.818957 -0.653961
v -0.825855 -1.000000 -0.658575
v -0.825855 -0.845564 -0.658575
v 1.000000 0.946856 -0.797446
v 1.000000 -0.911997 -0.797446
v -0.735032 -0.845564 -0.658575
v -0.729883 0.818957 -0.653961
v 0.722530 0.818957 -0.653961
v 0.727627 -0.845564 -0.658575
vt 0.625000 0.764868
vt 0.625000 0.750000
vt 0.625000 0.750000
vt 0.625000 0.764868
vt 0.618357 0.986253
vt 0.625000 0.986253
vt 0.625000 1.000000
vt 0.618357 1.000000
vt 0.618357 0.224681
vt 0.625000 0.224681
vt 0.625000 0.250000
vt 0.618357 0.250000
vt 0.375000 0.986253
vt 0.375000 1.000000
vt 0.375000 1.000000
vt 0.375000 0.986253
vt 0.618357 0.724783
vt 0.625000 0.724783
vt 0.618357 0.750000
vt 0.618357 0.485132
vt 0.625000 0.485132
vt 0.625000 0.500000
vt 0.618357 0.500000
vt 0.625000 0.263747
vt 0.625000 0.250000
vt 0.625000 0.250000
vt 0.625000 0.263747
vt 0.625000 0.025217
vt 0.625000 0.000000
vt 0.625000 0.000000
vt 0.625000 0.025217
vt 0.625000 0.525319
vt 0.625000 0.500000
vt 0.625000 0.525319
vt 0.625000 0.263747
vt 0.861253 0.724783
vt 0.875000 0.724783
vt 0.875000 0.750000
vt 0.861253 0.750000
vt 0.625000 0.500000
vt 0.625000 0.525319
vt 0.625000 0.000000
vt 0.625000 0.025217
vt 0.625000 0.750000
vt 0.625000 0.764868
vt 0.375000 1.000000
vt 0.375000 0.986253
vt 0.375000 0.224681
vt 0.375000 0.250000
vt 0.375000 0.250000
vt 0.375000 0.224681
vt 0.375000 0.724783
vt 0.375000 0.750000
vt 0.375000 0.750000
vt 0.375000 0.724783
vt 0.375000 0.485132
vt 0.375000 0.500000
vt 0.375000 0.500000
vt 0.375000 0.485132
vt 0.360132 0.724783
vt 0.375000 0.724783
vt 0.375000 0.750000
vt 0.360132 0.750000
vt 0.375000 0.250000
vt 0.375000 0.224681
vt 0.375000 0.500000
vt 0.375000 0.485132
vt 0.386000 0.485132
vt 0.386000 0.500000
vt 0.386000 0.724783
vt 0.386000 0.750000
vt 0.386000 0.224681
vt 0.386000 0.250000
vt 0.386000 0.986253
vt 0.386000 1.000000
vt 0.386000 0.263747
vt 0.375000 0.263747
vt 0.375000 0.764868
vt 0.386000 0.764868
vt 0.618357 0.764868
vt 0.618357 0.263747
vt 0.375000 0.263747
vt 0.375000 0.263747
vt 0.125000 0.724783
vt 0.138747 0.724783
vt 0.138747 0.750000
vt 0.125000 0.750000
vt 0.375000 0.764868
vt 0.375000 0.764868
vt 0.625000 1.000000
vt 0.625000 0.986253
vt 0.625000 0.986253
vt 0.625000 1.000000
vt 0.639868 0.724783
vt 0.639868 0.750000
vt 0.625000 0.485132
vt 0.625000 0.485132
vt 0.625000 0.724783
vt 0.138747 0.525319
vt 0.360132 0.525319
vt 0.639868 0.525319
vt 0.861253 0.525319
vt 0.125000 0.525319
vt 0.375000 0.525319
vt 0.386000 0.525319
vt 0.375000 0.000000
vt 0.386000 0.000000
vt 0.386000 0.025217
vt 0.375000 0.025217
vt 0.618357 0.000000
vt 0.618357 0.025217
vt 0.618357 0.525319
vt 0.375000 0.525319
vt 0.375000 0.525319
vt 0.375000 0.000000
vt 0.375000 0.025217
vt 0.375000 0.025217
vt 0.375000 0.000000
vt 0.625000 0.224681
vt 0.625000 0.224681
vt 0.625000 0.724783
vt 0.875000 0.525319
vt 0.861253 0.500000
vt 0.875000 0.500000
vt 0.360132 0.500000
vt 0.125000 0.500000
vt 0.138747 0.500000
vt 0.639868 0.500000
vn 0.0000 0.7071 0.7071
vn 0.5774 0.5774 0.5774
vn -0.3015 0.9045 -0.3015
vn 0.0000 0.7071 -0.7071
vn 0.0000 0.0000 1.0000
vn -0.5774 0.5774 0.5774
vn -0.7071 0.0000 0.7071
vn -1.0000 0.0000 0.0000
vn -0.7071 0.7071 0.0000
vn -0.5774 0.5774 -0.5774
vn -0.7071 0.0000 -0.7071
vn 0.0000 -0.7071 0.7071
vn -0.5774 -0.5774 0.5774
vn 0.3015 -0.9045 -0.3015
vn 0.0000 -0.7071 -0.7071
vn 1.0000 0.0000 0.0000
vn 0.7071 0.7071 0.0000
vn 0.7071 0.0000 0.7071
vn 0.0000 0.0000 -1.0000
vn 0.5774 0.5774 -0.5774
vn 0.7071 0.0000 -0.7071
vn 0.3015 0.9045 0.3015
vn 0.3015 0.9045 -0.3015
vn -0.3015 0.9045 0.3015
vn 0.0000 1.0000 0.0000
vn 0.5774 -0.5774 -0.5774
vn -0.7071 -0.7071 0.0000
vn -0.5774 -0.5774 -0.5774
vn 0.3015 -0.9045 0.3015
vn 0.7071 -0.7071 0.0000
vn 0.5774 -0.5774 0.5774
vn -0.3015 -0.9045 -0.3015
vn -0.3015 -0.9045 0.3015
vn 0.0000 -1.0000 0.0000
usemtl Material
s 1
f 58/1/1 3/2/2 9/3/3 59/4/4
f 46/5/5 34/6/1 7/7/6 26/8/7
f 91/9/8 85/10/9 5/11/10 28/12/11
f 35/13/12 8/14/13 18/15/14 42/16/15
f 77/17/16 66/18/17 3/2/2 27/19/18
f 55/20/19 50/21/4 1/22/20 25/23/21
f 38/24/1 12/25/22 16/26/2 40/27/1
f 67/28/9 7/29/6 10/30/23 70/31/17
f 94/32/17 1/22/20 11/33/24 95/34/9
f 36/35/4 5/11/10 12/25/22 38/24/1
f 82/36/25 72/37/17 14/38/20 39/39/4
f 95/34/9 11/33/24 15/40/6 96/41/9
f 70/31/17 10/30/23 14/42/20 72/43/17
f 59/4/4 9/3/3 13/44/10 60/45/4
f 42/16/15 18/15/14 22/46/26 44/47/15
f 93/48/27 6/49/28 17/50/29 97/51/30
f 68/52/30 4/53/31 20/54/32 74/55/27
f 57/56/15 2/57/26 19/58/33 61/59/12
f 84/60/34 76/61/27 24/62/28 54/63/15
f 97/51/30 17/50/29 21/64/31 98/65/30
f 74/55/27 20/54/32 24/62/28 76/61/27
f 61/59/12 19/58/33 23/66/13 62/67/12
f 56/68/19 55/20/19 25/23/21 29/69/21
f 80/70/16 77/17/16 27/19/18 30/71/18
f 92/72/8 91/9/8 28/12/11 31/73/11
f 47/74/5 46/5/5 26/8/7 32/75/7
f 35/13/12 47/74/5 32/75/7 8/14/13
f 93/48/27 92/72/8 31/73/11 6/49/28
f 68/52/30 80/70/16 30/71/18 4/53/31
f 57/56/15 56/68/19 29/69/21 2/57/26
f 6/49/28 31/73/11 48/76/19 33/77/15
f 49/78/12 64/79/5 47/74/5 35/13/12
f 64/79/5 63/80/5 46/5/5 47/74/5
f 31/73/11 28/12/11 45/81/19 48/76/19
f 17/50/29 41/82/12 43/83/12 21/64/31
f 75/84/30 81/85/34 44/86/15 22/87/26
f 6/49/28 33/77/15 41/82/12 17/50/29
f 53/88/15 42/16/15 44/47/15 54/89/15
f 10/90/23 37/91/4 39/92/4 14/93/20
f 83/94/25 82/36/25 39/39/4 60/95/4
f 50/21/4 36/35/4 38/24/1 51/96/1
f 51/96/1 38/24/1 40/27/1 52/97/1
f 28/12/11 5/11/10 36/35/4 45/81/19
f 49/78/12 35/13/12 42/16/15 53/88/15
f 63/80/5 58/1/1 34/6/1 46/5/5
f 7/7/6 34/6/1 37/91/4 10/90/23
f 27/19/18 3/2/2 58/1/1 63/80/5
f 4/53/31 49/78/12 53/88/15 20/54/32
f 11/33/24 51/96/1 52/97/1 15/40/6
f 1/22/20 50/21/4 51/96/1 11/33/24
f 71/98/9 83/94/25 60/95/4 13/44/10
f 20/54/32 53/88/15 54/89/15 24/62/28
f 30/71/18 27/19/18 63/80/5 64/79/5
f 4/53/31 30/71/18 64/79/5 49/78/12
f 33/77/15 48/76/19 56/68/19 57/56/15
f 48/76/19 45/81/19 55/20/19 56/68/19
f 41/82/12 61/59/12 62/67/12 43/83/12
f 81/85/34 84/60/34 54/63/15 44/86/15
f 33/77/15 57/56/15 61/59/12 41/82/12
f 37/91/4 59/4/4 60/45/4 39/92/4
f 45/81/19 36/35/4 50/21/4 55/20/19
f 34/6/1 58/1/1 59/4/4 37/91/4
f 101/99/34 104/100/34 84/60/34 81/85/34
f 96/41/9 103/101/25 83/94/25 71/98/9
f 103/101/25 102/102/25 82/36/25 83/94/25
f 98/103/30 101/99/34 81/85/34 75/84/30
f 86/104/30 100/105/16 80/70/16 68/52/30
f 8/106/13 32/107/7 79/108/8 65/109/27
f 32/107/7 26/110/7 78/111/8 79/108/8
f 100/105/16 99/112/16 77/17/16 80/70/16
f 89/113/27 74/55/27 76/61/27 90/114/27
f 18/115/14 73/116/30 75/117/30 22/118/26
f 104/100/34 90/114/27 76/61/27 84/60/34
f 86/104/30 68/52/30 74/55/27 89/113/27
f 8/106/13 65/109/27 73/116/30 18/115/14
f 87/119/17 70/31/17 72/43/17 88/120/17
f 9/3/3 69/121/9 71/98/9 13/44/10
f 102/102/25 88/122/17 72/37/17 82/36/25
f 3/2/2 66/18/17 69/121/9 9/3/3
f 85/10/9 67/28/9 70/31/17 87/119/17
f 99/112/16 94/32/17 66/18/17 77/17/16
f 26/110/7 7/29/6 67/28/9 78/111/8
f 25/23/21 1/22/20 94/32/17 99/112/16
f 5/11/10 85/10/9 87/119/17 12/25/22
f 40/123/1 16/124/2 88/122/17 102/102/25
f 12/25/22 87/119/17 88/120/17 16/26/2
f 2/57/26 86/104/30 89/113/27 19/58/33
f 62/125/12 23/66/13 90/114/27 104/100/34
f 19/58/33 89/113/27 90/114/27 23/66/13
f 29/69/21 25/23/21 99/112/16 100/105/16
f 2/57/26 29/69/21 100/105/16 86/104/30
f 21/126/31 43/127/12 101/99/34 98/103/30
f 52/128/1 40/123/1 102/102/25 103/101/25
f 15/40/6 52/128/1 103/101/25 96/41/9
f 43/127/12 62/125/12 104/100/34 101/99/34
f 65/109/27 79/108/8 92/72/8 93/48/27
f 79/108/8 78/111/8 91/9/8 92/72/8
f 73/116/30 97/51/30 98/65/30 75/117/30
f 65/109/27 93/48/27 97/51/30 73/116/30
f 69/121/9 95/34/9 96/41/9 71/98/9
f 66/18/17 94/32/17 95/34/9 69/121/9
f 78/111/8 67/28/9 85/10/9 91/9/8
