# Blender v3.3.1 OBJ File: 'GlassSquare.blend'
# www.blender.org
mtllib GlassSquare.mtl
o Vaso_Cube
v -0.512065 1.963971 0.570843
v -0.430412 1.963971 0.592721
v -1.000000 1.963971 0.721840
v -0.721840 1.963971 1.000000
v -0.962734 1.963971 0.860920
v -0.860920 1.963971 0.962734
v -0.660537 -0.036029 0.938697
v -0.938697 -0.036029 0.660537
v -0.799617 -0.036029 0.901431
v -0.901431 -0.036029 0.799617
v -0.635248 1.963971 -1.000000
v -1.000000 1.963971 -0.635248
v -0.817624 1.963971 -0.951132
v -0.951132 1.963971 -0.817624
v -0.938697 -0.036029 -0.573945
v -0.573945 -0.036029 -0.938697
v -0.889829 -0.036029 -0.756321
v -0.756321 -0.036029 -0.889829
v 1.000000 1.963971 -0.576578
v 0.576578 1.963971 -1.000000
v 0.943272 1.963971 -0.788289
v 0.788289 1.963971 -0.943272
v 0.515275 -0.036029 -0.938697
v 0.938697 -0.036029 -0.515275
v 0.726986 -0.036029 -0.881969
v 0.881969 -0.036029 -0.726986
v 0.623437 1.963971 1.000000
v 1.000000 1.963971 0.623437
v 0.811719 1.963971 0.949550
v 0.949550 1.963971 0.811718
v 0.938697 -0.036029 0.562134
v 0.562134 -0.036029 0.938697
v 0.888247 -0.036029 0.750415
v 0.750415 -0.036029 0.888247
v -0.571839 1.963971 0.511069
v -0.593717 1.963971 0.429416
v -0.486646 1.963971 -0.552777
v -0.379574 1.963971 -0.581467
v -0.565028 1.963971 -0.474395
v -0.593717 1.963971 -0.367323
v 0.547166 1.963971 -0.457172
v 0.580471 1.963971 -0.332878
v 0.456176 1.963971 -0.548162
v 0.331882 1.963971 -0.581467
v 0.469932 1.963971 0.563103
v 0.359393 1.963971 0.592721
v 0.550852 1.963971 0.482182
v 0.580471 1.963971 0.371644
v -0.330457 0.434849 -0.265872
v -0.285566 0.434849 -0.310763
v -0.300124 0.434849 0.332756
v -0.334358 0.434849 0.298523
v -0.224244 0.434849 -0.327195
v -0.253359 0.434849 0.345287
v -0.346888 0.434849 0.251758
v -0.346888 0.434849 -0.204550
v 0.306519 0.434849 -0.256009
v 0.325594 0.434849 -0.184823
v 0.254408 0.434849 -0.308120
v 0.183222 0.434849 -0.327195
v 0.262286 0.434849 0.328324
v 0.198978 0.434849 0.345287
v 0.308630 0.434849 0.281979
v 0.325594 0.434849 0.218671
v 0.491415 2.104616 0.796361
v -0.576126 2.104616 0.796361
v 0.790235 2.104616 0.497540
v 0.750201 2.104616 0.646950
v -0.767286 2.104616 0.685994
v -0.796859 2.104616 0.575628
v -0.796859 2.104616 -0.501285
v 0.640825 2.104616 0.756326
v -0.758080 2.104616 -0.646009
v -0.652135 2.104616 -0.751955
v 0.454230 2.104616 -0.790733
v 0.622233 2.104616 -0.745717
v 0.745219 2.104616 -0.622731
v 0.790235 2.104616 -0.454728
v -0.686492 2.104616 0.766788
v -0.507411 2.104616 -0.790733
v -0.648983 2.087026 0.898180
v 0.849876 2.087026 0.729334
v -0.898429 2.087026 0.648734
v -0.898429 2.087026 -0.568267
v -0.734879 2.087026 -0.851544
v 0.705261 2.087026 -0.844495
v 0.895118 2.087026 -0.515653
v -0.773706 2.087026 0.864761
v -0.571329 2.087026 -0.895367
v 0.557426 2.087026 0.898180
v 0.895118 2.087026 0.560489
v -0.865010 2.087026 0.773457
v 0.726272 2.087026 0.852938
v -0.854606 2.087026 -0.731817
v 0.515404 2.087026 -0.895367
v 0.844246 2.087026 -0.705510
v -0.661750 0.003543 0.939910
v -0.800830 0.003543 0.902644
v -0.902644 0.003543 0.800830
v -0.939910 0.003543 0.661750
v -0.575158 0.003543 -0.939910
v -0.757534 0.003543 -0.891042
v -0.891042 0.003543 -0.757534
v -0.939910 0.003543 -0.575158
v 0.939910 0.003543 -0.516488
v 0.883182 0.003543 -0.728199
v 0.728199 0.003543 -0.883182
v 0.516488 0.003543 -0.939910
v 0.563347 0.003544 0.939910
v 0.751628 0.003543 0.889460
v 0.889460 0.003543 0.751628
v 0.939910 0.003543 0.563347
vt 0.625000 0.965230
vt 0.625000 0.797070
vt 0.625000 0.797070
vt 0.625000 0.965230
vt 0.125000 0.548572
vt 0.131507 0.524286
vt 0.149286 0.506507
vt 0.173572 0.500000
vt 0.318616 0.500000
vt 0.346808 0.507554
vt 0.367446 0.528192
vt 0.375000 0.556384
vt 0.375000 0.699856
vt 0.368282 0.724928
vt 0.349928 0.743282
vt 0.324856 0.750000
vt 0.162041 0.750000
vt 0.143520 0.745037
vt 0.129963 0.731480
vt 0.125000 0.712959
vt 0.624807 0.773533
vt 0.624807 0.726467
vt 0.624807 0.726467
vt 0.624807 0.773533
vt 0.379947 0.963004
vt 0.625000 0.965230
vt 0.624326 1.000000
vt 0.379933 1.000000
vt 0.379933 0.000000
vt 0.624326 0.000000
vt 0.624857 0.017383
vt 0.379804 0.018496
vt 0.625000 0.034770
vt 0.379947 0.036996
vt 0.379947 0.800084
vt 0.625000 0.797070
vt 0.379947 0.298513
vt 0.375000 0.298572
vt 0.374813 0.274284
vt 0.379759 0.274254
vt 0.374813 0.225716
vt 0.379759 0.225746
vt 0.375000 0.201428
vt 0.379947 0.201487
vt 0.625000 0.204406
vt 0.379947 0.556316
vt 0.374783 0.528190
vt 0.379730 0.528156
vt 0.374783 0.471811
vt 0.379729 0.471845
vt 0.375000 0.443616
vt 0.379947 0.443684
vt 0.625000 0.295594
vt 0.625000 0.447072
vt 0.375000 0.800144
vt 0.374807 0.775070
vt 0.379754 0.775040
vt 0.374807 0.724930
vt 0.379753 0.724961
vt 0.379947 0.699916
vt 0.625000 0.552928
vt 0.625000 0.702930
vt 0.624807 0.726467
vt 0.625000 0.702930
vt 0.625000 0.702930
vt 0.625000 0.034770
vt 0.624857 0.017383
vt 0.624857 0.017383
vt 0.625000 0.034770
vt 0.625000 0.204406
vt 0.625000 0.204406
vt 0.624807 0.773533
vt 0.624813 0.272795
vt 0.624813 0.227205
vt 0.624813 0.227205
vt 0.624813 0.272795
vt 0.624783 0.473539
vt 0.625000 0.447072
vt 0.625000 0.447072
vt 0.624783 0.473539
vt 0.625000 0.552928
vt 0.624783 0.526462
vt 0.624783 0.526462
vt 0.625000 0.552928
vt 0.624326 1.000000
vt 0.624326 1.000000
vt 0.625000 0.295594
vt 0.625000 0.295594
vt 0.624326 0.000000
vt 0.624326 0.000000
vt 0.625000 0.552928
vt 0.632091 0.526464
vt 0.651464 0.507091
vt 0.677928 0.500000
vt 0.829406 0.500000
vt 0.852203 0.506109
vt 0.868892 0.522797
vt 0.875000 0.545594
vt 0.875000 0.715230
vt 0.870342 0.732615
vt 0.857615 0.745342
vt 0.840230 0.750000
vt 0.672070 0.750000
vt 0.648535 0.743694
vt 0.631306 0.726465
vt 0.625000 0.702930
vt 0.624857 0.017383
vt 0.625000 0.034770
vt 0.625000 0.204406
vt 0.624813 0.227205
vt 0.624783 0.526462
vt 0.624326 0.000000
vt 0.625000 0.797070
vt 0.625000 0.965230
vt 0.624783 0.473539
vt 0.624813 0.272795
vt 0.625000 0.295594
vt 0.625000 0.447072
vt 0.624326 1.000000
vt 0.624783 0.526462
vt 0.624783 0.473539
vt 0.625000 0.447072
vt 0.625000 0.295594
vt 0.624807 0.773533
vt 0.624807 0.726467
vt 0.624857 0.017383
vt 0.624326 0.000000
vt 0.624813 0.272795
vt 0.625000 0.702930
vt 0.625000 0.552928
vt 0.624813 0.227205
vt 0.625000 0.204406
vt 0.624326 1.000000
vt 0.625000 0.965230
vt 0.625000 0.797070
vt 0.625000 0.034770
vt 0.624807 0.726467
vt 0.624807 0.773533
vt 0.624813 0.272795
vt 0.624813 0.227205
vt 0.624783 0.473539
vt 0.624783 0.526462
vt 0.375000 0.037041
vt 0.375000 0.962959
vt 0.374857 0.018519
vt 0.375000 0.000000
vt 0.375000 1.000000
vn 0.0345 0.9856 -0.1658
vn -0.0337 0.9852 -0.1680
vn -0.1001 0.5660 -0.8183
vn 0.0993 0.5674 -0.8174
vn -0.7166 -0.6913 -0.0927
vn -0.6446 -0.6687 -0.3706
vn -0.3706 -0.6687 -0.6446
vn -0.0927 -0.6913 -0.7166
vn 0.0927 -0.6913 -0.7166
vn 0.3706 -0.6687 -0.6446
vn 0.6446 -0.6687 -0.3706
vn 0.7166 -0.6913 -0.0927
vn 0.7166 -0.6913 0.0927
vn 0.6446 -0.6687 0.3706
vn 0.3706 -0.6687 0.6446
vn 0.0927 -0.6913 0.7166
vn -0.0927 -0.6913 0.7166
vn -0.3706 -0.6687 0.6446
vn -0.6446 -0.6687 0.3706
vn -0.7166 -0.6913 0.0927
vn -0.3841 0.6236 -0.6808
vn -0.6783 0.6264 -0.3842
vn -0.5982 0.7253 -0.3407
vn -0.3404 0.7247 -0.5991
vn -0.1304 -0.0344 0.9909
vn -0.1343 0.3350 0.9326
vn -0.4753 0.3525 0.8061
vn -0.4995 -0.0418 0.8653
vn -0.8061 0.3524 0.4754
vn -0.8653 -0.0418 0.4995
vn -0.9327 0.3346 0.1344
vn -0.9909 -0.0344 0.1304
vn 0.1304 -0.0344 0.9909
vn 0.1334 0.3326 0.9336
vn -0.1304 -0.0344 -0.9909
vn -0.4995 -0.0418 -0.8653
vn -0.8653 -0.0418 -0.4995
vn -0.9909 -0.0344 -0.1304
vn -0.9336 0.3324 -0.1336
vn 0.9909 -0.0344 -0.1304
vn 0.8653 -0.0418 -0.4995
vn 0.4995 -0.0418 -0.8653
vn 0.1304 -0.0344 -0.9909
vn -0.1326 0.3373 -0.9320
vn 0.1323 0.3364 -0.9324
vn 0.4995 -0.0418 0.8653
vn 0.8653 -0.0418 0.4995
vn 0.9909 -0.0344 0.1304
vn 0.9322 0.3368 -0.1322
vn 0.9320 0.3375 0.1325
vn -0.1087 0.9915 -0.0712
vn -0.1660 0.9856 -0.0323
vn -0.8134 0.5729 -0.1002
vn 0.1659 0.9855 -0.0346
vn 0.1068 0.9917 -0.0720
vn 0.6781 0.6276 -0.3824
vn 0.8178 0.5668 -0.0993
vn 0.1679 0.9852 0.0339
vn 0.8186 0.5656 0.1000
vn -0.0727 0.9915 -0.1083
vn 0.0712 0.9915 0.1086
vn 0.1081 0.9915 0.0727
vn 0.6808 0.6238 0.3840
vn 0.3840 0.6266 0.6782
vn -0.0716 0.9915 0.1087
vn -0.0321 0.9855 0.1667
vn -0.1005 0.5720 0.8141
vn -0.3843 0.6253 0.6792
vn -0.1666 0.9855 0.0320
vn -0.1088 0.9915 0.0715
vn -0.6789 0.6256 0.3843
vn -0.8137 0.5725 0.1005
vn 0.0719 0.9917 -0.1069
vn 0.3824 0.6279 -0.6779
vn 0.0325 0.9856 0.1659
vn 0.1001 0.5725 0.8137
vn -0.6665 0.7408 0.0836
vn -0.5984 0.7251 0.3407
vn -0.3407 0.7251 0.5985
vn -0.0835 0.7407 0.6667
vn 0.0833 0.7408 0.6665
vn 0.3406 0.7254 0.5981
vn 0.5991 0.7248 0.3403
vn 0.6681 0.7394 0.0832
vn 0.6677 0.7398 -0.0826
vn 0.5983 0.7257 -0.3397
vn 0.3397 0.7258 -0.5982
vn 0.0826 0.7399 -0.6676
vn -0.0832 0.7395 -0.6680
vn -0.6664 0.7409 -0.0834
vn 0.4190 0.8780 -0.2315
vn 0.2315 0.8779 -0.4192
vn 0.0567 0.8675 -0.4943
vn -0.0562 0.8679 -0.4936
vn 0.2313 0.8769 0.4215
vn 0.4180 0.8785 0.2313
vn -0.4178 0.8793 0.2288
vn -0.2288 0.8794 0.4175
vn -0.2311 0.8786 -0.4179
vn 0.4932 0.8681 0.0563
vn 0.4937 0.8678 -0.0567
vn -0.4213 0.8770 -0.2311
vn -0.5008 0.8637 -0.0564
vn -0.0552 0.8650 0.4987
vn 0.0565 0.8640 0.5004
vn -0.4993 0.8647 0.0552
vn 0.8074 0.3507 0.4745
vn 0.4758 0.3491 0.8073
vn -0.4745 0.3508 -0.8073
vn -0.8072 0.3493 -0.4759
vn 0.4748 0.3500 -0.8075
vn 0.8075 0.3501 -0.4747
usemtl Material
s 1
f 66/1/1 65/2/2 46/3/3 2/4/4
f 15/5/5 17/6/6 18/7/7 16/8/8 23/9/9 25/10/10 26/11/11 24/12/12 31/13/13 33/14/14 34/15/15 32/16/16 7/17/17 9/18/18 10/19/19 8/20/20
f 45/21/21 47/22/22 63/23/23 61/24/24
f 97/25/25 4/26/26 6/27/27 98/28/28
f 98/29/28 6/30/27 5/31/29 99/32/30
f 99/32/30 5/31/29 3/33/31 100/34/32
f 109/35/33 27/36/34 4/26/26 97/25/25
f 101/37/35 16/38/8 18/39/7 102/40/36
f 102/40/36 18/39/7 17/41/6 103/42/37
f 103/42/37 17/41/6 15/43/5 104/44/38
f 100/34/32 3/33/31 12/45/39 104/44/38
f 105/46/40 24/12/12 26/47/11 106/48/41
f 106/48/41 26/47/11 25/49/10 107/50/42
f 107/50/42 25/49/10 23/51/9 108/52/43
f 101/37/35 11/53/44 20/54/45 108/52/43
f 109/35/33 32/55/16 34/56/15 110/57/46
f 110/57/46 34/56/15 33/58/14 111/59/47
f 111/59/47 33/58/14 31/13/13 112/60/48
f 105/46/40 19/61/49 28/62/50 112/60/48
f 68/63/51 67/64/52 48/65/53 47/22/22
f 70/66/54 69/67/55 35/68/56 36/69/57
f 71/70/58 70/66/54 36/69/57 40/71/59
f 65/2/2 72/72/60 45/21/21 46/3/3
f 74/73/61 73/74/62 39/75/63 37/76/64
f 76/77/65 75/78/66 44/79/67 43/80/68
f 78/81/69 77/82/70 41/83/71 42/84/72
f 79/85/73 66/1/1 2/4/4 1/86/74
f 73/74/62 71/70/58 40/71/59 39/75/63
f 67/64/52 78/81/69 42/84/72 48/65/53
f 80/87/75 74/73/61 37/76/64 38/88/76
f 69/67/55 79/89/73 1/90/74 35/68/56
f 72/72/60 68/63/51 47/22/22 45/21/21
f 75/78/66 80/87/75 38/88/76 44/79/67
f 77/82/70 76/77/65 43/80/68 41/83/71
f 58/91/77 57/92/78 59/93/79 60/94/80 53/95/81 50/96/82 49/97/83 56/98/84 55/99/85 52/100/86 51/101/87 54/102/88 62/103/89 61/104/24 63/105/23 64/106/90
f 36/69/57 35/68/56 52/107/86 55/108/85
f 39/75/63 40/71/59 56/109/84 49/110/83
f 47/22/22 48/65/53 64/106/90 63/23/23
f 40/71/59 36/69/57 55/108/85 56/109/84
f 48/65/53 42/84/72 58/91/77 64/106/90
f 42/84/72 41/83/71 57/111/78 58/91/77
f 35/68/56 1/90/74 51/112/87 52/107/86
f 2/4/4 46/3/3 62/113/89 54/114/88
f 41/83/71 43/80/68 59/115/79 57/111/78
f 38/88/76 37/76/64 50/116/82 53/117/81
f 43/80/68 44/79/67 60/118/80 59/115/79
f 44/79/67 38/88/76 53/117/81 60/118/80
f 46/3/3 45/21/21 61/24/24 62/113/89
f 37/76/64 39/75/63 49/110/83 50/116/82
f 1/86/74 2/4/4 54/114/88 51/119/87
f 96/120/91 86/121/92 76/77/65 77/82/70
f 95/122/93 89/123/94 80/87/75 75/78/66
f 93/124/95 82/125/96 68/63/51 72/72/60
f 92/126/97 88/127/98 79/89/73 69/67/55
f 89/123/94 85/128/99 74/73/61 80/87/75
f 91/129/100 87/130/101 78/81/69 67/64/52
f 94/131/102 84/132/103 71/70/58 73/74/62
f 88/133/98 81/134/104 66/1/1 79/85/73
f 87/130/101 96/120/91 77/82/70 78/81/69
f 86/121/92 95/122/93 75/78/66 76/77/65
f 85/128/99 94/131/102 73/74/62 74/73/61
f 90/135/105 93/124/95 72/72/60 65/2/2
f 84/132/103 83/136/106 70/66/54 71/70/58
f 83/136/106 92/126/97 69/67/55 70/66/54
f 82/125/96 91/129/100 67/64/52 68/63/51
f 81/134/104 90/135/105 65/2/2 66/1/1
f 4/26/26 27/36/34 90/135/105 81/134/104
f 30/137/107 28/62/50 91/129/100 82/125/96
f 3/33/31 5/31/29 92/126/97 83/136/106
f 12/45/39 3/33/31 83/136/106 84/132/103
f 27/36/34 29/138/108 93/124/95 90/135/105
f 13/139/109 14/140/110 94/131/102 85/128/99
f 22/141/111 20/54/45 95/122/93 86/121/92
f 19/61/49 21/142/112 96/120/91 87/130/101
f 6/27/27 4/26/26 81/134/104 88/133/98
f 14/140/110 12/45/39 84/132/103 94/131/102
f 28/62/50 19/61/49 87/130/101 91/129/100
f 11/53/44 13/139/109 85/128/99 89/123/94
f 5/31/29 6/30/27 88/127/98 92/126/97
f 29/138/108 30/137/107 82/125/96 93/124/95
f 20/54/45 11/53/44 89/123/94 95/122/93
f 21/142/112 22/141/111 86/121/92 96/120/91
f 24/12/12 105/46/40 112/60/48 31/13/13
f 30/137/107 111/59/47 112/60/48 28/62/50
f 29/138/108 110/57/46 111/59/47 30/137/107
f 27/36/34 109/35/33 110/57/46 29/138/108
f 16/38/8 101/37/35 108/52/43 23/51/9
f 22/141/111 107/50/42 108/52/43 20/54/45
f 21/142/112 106/48/41 107/50/42 22/141/111
f 19/61/49 105/46/40 106/48/41 21/142/112
f 8/143/20 100/34/32 104/44/38 15/43/5
f 14/140/110 103/42/37 104/44/38 12/45/39
f 13/139/109 102/40/36 103/42/37 14/140/110
f 11/53/44 101/37/35 102/40/36 13/139/109
f 32/55/16 109/35/33 97/25/25 7/144/17
f 10/145/19 99/32/30 100/34/32 8/143/20
f 9/146/18 98/29/28 99/32/30 10/145/19
f 7/144/17 97/25/25 98/28/28 9/147/18
