# Blender 3.3.1
# www.blender.org
mtllib ovenKnob.mtl
o Cube
v 1.000000 1.000000 -1.000000
v 1.000000 -1.000000 -1.000000
v 1.000000 1.000000 1.177400
v 1.000000 -1.000000 1.120360
v -1.000000 1.000000 -1.000000
v -1.000000 -1.000000 -1.000000
v -1.000000 1.000000 1.121914
v -1.000000 -1.000000 1.088921
v 0.000000 -1.361897 -1.285214
v 0.000000 1.393215 1.285214
v 0.000000 -1.361897 1.285214
v 0.000000 1.393215 -1.285214
v 1.253170 0.000000 -1.184457
v -1.296329 0.000000 1.184457
v 1.253170 0.000000 1.184457
v -1.296329 0.000000 -1.184457
v 0.000000 0.000000 -1.522281
v 0.000000 0.000000 1.308155
vn -0.3659 0.9306 -0.0000
vn -0.1326 0.0518 0.9898
vn -0.9588 0.2841 -0.0000
vn 0.3403 -0.9403 -0.0000
vn 0.9694 0.2454 -0.0000
vn 0.2930 0.1958 -0.9359
vn -0.2884 0.2006 -0.9363
vn -0.3403 -0.9403 -0.0000
vn 0.1063 0.0237 0.9941
vn 0.3659 0.9306 -0.0000
vn 0.1349 -0.0509 0.9895
vn -0.2861 -0.2030 -0.9365
vn 0.2907 -0.1982 -0.9361
vn 0.9694 -0.2454 -0.0000
vn -0.9588 -0.2841 -0.0000
vn -0.1482 -0.0681 0.9866
vt 0.625000 0.500000
vt 0.375000 0.500000
vt 0.625000 0.750000
vt 0.375000 0.750000
vt 0.875000 0.500000
vt 0.625000 0.250000
vt 0.125000 0.500000
vt 0.375000 0.250000
vt 0.875000 0.750000
vt 0.625000 1.000000
vt 0.625000 0.000000
vt 0.125000 0.750000
vt 0.375000 0.000000
vt 0.375000 1.000000
vt 0.250000 0.500000
vt 0.375000 0.375000
vt 0.625000 0.875000
vt 0.750000 0.750000
vt 0.250000 0.750000
vt 0.375000 0.875000
vt 0.625000 0.375000
vt 0.750000 0.500000
vt 0.500000 0.500000
vt 0.500000 0.000000
vt 0.500000 1.000000
vt 0.500000 0.750000
vt 0.500000 0.250000
vt 0.500000 0.375000
vt 0.500000 0.875000
s 0
usemtl Material
f 12/22/1 5/5/1 7/9/1 10/18/1
f 18/29/2 10/17/2 7/10/2 14/25/2
f 14/24/3 7/11/3 5/6/3 16/27/3
f 9/15/4 2/2/4 4/4/4 11/19/4
f 13/23/5 1/1/5 3/3/5 15/26/5
f 17/28/6 12/21/6 1/1/6 13/23/6
f 16/27/7 5/6/7 12/21/7 17/28/7
f 6/7/8 9/15/8 11/19/8 8/12/8
f 15/26/9 3/3/9 10/17/9 18/29/9
f 1/1/10 12/22/10 10/18/10 3/3/10
f 4/4/11 15/26/11 18/29/11 11/20/11
f 6/8/12 16/27/12 17/28/12 9/16/12
f 9/16/13 17/28/13 13/23/13 2/2/13
f 2/2/14 13/23/14 15/26/14 4/4/14
f 8/13/15 14/24/15 16/27/15 6/8/15
f 11/20/16 18/29/16 14/25/16 8/14/16
